<svg width="262" height="72" viewBox="0 0 262 72" fill="none" xmlns="http://www.w3.org/2000/svg">
<path d="M11.6667 5.33333H3.54327L5.93487 2.94273L5 2L1 6L5 10L5.93487 9.05693L3.54527 6.66667H11.6667C12.7275 6.66667 13.7449 7.08809 14.4951 7.83824C15.2452 8.58839 15.6667 9.6058 15.6667 10.6667C15.6667 11.7275 15.2452 12.7449 14.4951 13.4951C13.7449 14.2452 12.7275 14.6667 11.6667 14.6667H6.33333V16H11.6667C13.0812 16 14.4377 15.4381 15.4379 14.4379C16.4381 13.4377 17 12.0812 17 10.6667C17 9.25218 16.4381 7.89562 15.4379 6.89543C14.4377 5.89524 13.0812 5.33333 11.6667 5.33333Z" fill="black"/>
<path d="M24.3333 5.33333H32.4567L30.0651 2.94273L31 2L35 6L31 10L30.0651 9.05693L32.4547 6.66667H24.3333C23.2725 6.66667 22.2551 7.08809 21.5049 7.83824C20.7548 8.58839 20.3333 9.6058 20.3333 10.6667C20.3333 11.7275 20.7548 12.7449 21.5049 13.4951C22.2551 14.2452 23.2725 14.6667 24.3333 14.6667H29.6667V16H24.3333C22.9188 16 21.5623 15.4381 20.5621 14.4379C19.5619 13.4377 19 12.0812 19 10.6667C19 9.25218 19.5619 7.89562 20.5621 6.89543C21.5623 5.89524 22.9188 5.33333 24.3333 5.33333Z" fill="black"/>
<path d="M51.8571 5.23077H50.1429V2H39.8571V5.23077H38.1429C37.8398 5.23077 37.5491 5.34423 37.3347 5.54619C37.1204 5.74816 37 6.02207 37 6.30769V11.6923C37 11.9779 37.1204 12.2518 37.3347 12.4538C37.5491 12.6558 37.8398 12.7692 38.1429 12.7692H39.8571V16H50.1429V12.7692H51.8571C52.1602 12.7692 52.4509 12.6558 52.6653 12.4538C52.8796 12.2518 53 11.9779 53 11.6923V6.30769C53 6.02207 52.8796 5.74816 52.6653 5.54619C52.4509 5.34423 52.1602 5.23077 51.8571 5.23077ZM41 3.07692H49V5.23077H41V3.07692ZM49 14.9231H41V9.53846H49V14.9231ZM51.8571 11.6923H50.1429V8.46154H39.8571V11.6923H38.1429V6.30769H51.8571V11.6923Z" fill="black"/>
<path fill-rule="evenodd" clip-rule="evenodd" d="M66 2H58C57.45 2 57 2.45 57 3V6C57 6.55 57.45 7 58 7H66C66.55 7 67 6.55 67 6V5H68V8H61V16H63V10H70V4H67V3C67 2.45 66.55 2 66 2Z" fill="black"/>
<path fill-rule="evenodd" clip-rule="evenodd" d="M74.27 4.55L79.43 9.7L77 15H79.5L81.14 11.42L85.73 16L87 14.73L75.55 3.27L74.27 4.55ZM77.82 3L79.82 5H81.58L81.03 6.21L82.74 7.92L84.08 5H88V3H77.82Z" fill="black"/>
<path d="M100.392 15.2222H94V3H99.8738C100.566 3.00004 101.244 3.19484 101.828 3.5614C102.411 3.92795 102.876 4.45094 103.167 5.06858C103.457 5.68622 103.562 6.3727 103.468 7.04693C103.375 7.72115 103.086 8.35496 102.638 8.87346C103.224 9.3338 103.65 9.96124 103.858 10.6694C104.066 11.3776 104.045 12.1317 103.799 12.8279C103.553 13.5241 103.093 14.1281 102.483 14.5569C101.873 14.9857 101.142 15.2182 100.392 15.2222ZM96.0731 13.1852H100.378C100.582 13.1852 100.785 13.1457 100.973 13.0689C101.162 12.9921 101.333 12.8796 101.478 12.7377C101.622 12.5958 101.737 12.4274 101.815 12.2421C101.893 12.0567 101.933 11.858 101.933 11.6574C101.933 11.4568 101.893 11.2581 101.815 11.0728C101.737 10.8874 101.622 10.719 101.478 10.5771C101.333 10.4352 101.162 10.3227 100.973 10.2459C100.785 10.1691 100.582 10.1296 100.378 10.1296H96.0731V13.1852ZM96.0731 8.09259H99.8738C100.078 8.09259 100.28 8.05308 100.469 7.9763C100.657 7.89952 100.829 7.78698 100.973 7.64512C101.118 7.50325 101.232 7.33483 101.31 7.14947C101.388 6.96411 101.429 6.76545 101.429 6.56481C101.429 6.36418 101.388 6.16552 101.31 5.98016C101.232 5.7948 101.118 5.62638 100.973 5.48451C100.829 5.34265 100.657 5.23011 100.469 5.15333C100.28 5.07655 100.078 5.03704 99.8738 5.03704H96.0731V8.09259Z" fill="black"/>
<path d="M122.969 4.3125V3H113.625V4.3125H117.319L114.178 13.5H110.031V14.8125H119.375V13.5H115.681L118.822 4.3125H122.969Z" fill="black"/>
<path d="M142.5 15.25H127.5V16.5H142.5V15.25Z" fill="black"/>
<path d="M135 13.25C133.84 13.25 132.727 12.7891 131.906 11.9686C131.086 11.1481 130.625 10.0353 130.625 8.875V2H131.875V8.875C131.875 9.7038 132.204 10.4987 132.79 11.0847C133.376 11.6708 134.171 12 135 12C135.829 12 136.624 11.6708 137.21 11.0847C137.796 10.4987 138.125 9.7038 138.125 8.875V2H139.375V8.875C139.375 10.0353 138.914 11.1481 138.094 11.9686C137.273 12.7891 136.16 13.25 135 13.25Z" fill="black"/>
<path d="M159.81 7.19353H154.031C153.77 7.12235 153.511 7.05981 153.261 7.00065C151.645 6.61852 150.731 6.33858 150.731 5.03094C150.718 4.80518 150.751 4.57912 150.829 4.3668C150.907 4.15448 151.028 3.96042 151.184 3.79667C151.673 3.39465 152.285 3.17317 152.918 3.16947C154.546 3.12919 155.297 3.68125 155.911 4.5217L156.84 3.84317C156.405 3.21839 155.812 2.72029 155.122 2.39975C154.431 2.07922 153.668 1.94774 152.91 2.01875C151.979 2.02469 151.081 2.36376 150.378 2.97458C150.112 3.2447 149.904 3.5665 149.767 3.92014C149.629 4.27379 149.566 4.65178 149.581 5.03083C149.555 5.44571 149.633 5.86038 149.808 6.23778C149.982 6.61518 150.247 6.94355 150.579 7.19353H146V8.34437H153.856C154.987 8.67235 155.664 9.09949 155.682 10.2766C155.7 10.5281 155.666 10.7807 155.58 11.018C155.495 11.2552 155.36 11.4718 155.185 11.6536C154.576 12.1335 153.82 12.3875 153.045 12.3723C152.466 12.3555 151.899 12.2074 151.386 11.9391C150.873 11.6708 150.428 11.2894 150.084 10.8237L149.202 11.5627C149.649 12.1583 150.226 12.6443 150.888 12.984C151.551 13.3237 152.282 13.508 153.027 13.5231C153.032 13.5224 153.051 13.5231 153.084 13.5231C154.147 13.5354 155.179 13.1638 155.989 12.4765C156.277 12.1865 156.501 11.8392 156.646 11.4574C156.791 11.0755 156.854 10.6674 156.832 10.2594C156.854 9.56159 156.618 8.88013 156.171 8.34437H159.81V7.19353Z" fill="black"/>
<path fill-rule="evenodd" clip-rule="evenodd" d="M172 3H170L165.5 15H167.5L168.62 12H173.37L174.49 15H176.49L172 3ZM169.38 10L171 5.67L172.62 10H169.38Z" fill="black"/>
<path d="M193 9.26999C193.003 9.14331 192.959 9.02 192.875 8.92499L188.585 4.165C188.559 4.1406 188.531 4.11882 188.5 4.1V3H187.5V4.5L182.161 9.36999C182.064 9.45965 182.006 9.58417 182 9.7163C181.995 9.84843 182.042 9.9774 182.131 10.075L186.416 14.835C186.504 14.9335 186.628 14.9929 186.761 15H186.785C186.911 15.0009 187.032 14.9545 187.125 14.87L192 10.4V12.5C192 12.6326 192.053 12.7598 192.146 12.8535C192.24 12.9473 192.367 13 192.5 13C192.632 13 192.76 12.9473 192.853 12.8535C192.947 12.7598 193 12.6326 193 12.5V9.28499C193 9.28499 193 9.27499 193 9.26999ZM186.825 13.77L183.211 9.76999L187.5 5.835V7.99999H188.5V5.565L191.795 9.22999L186.825 13.77Z" fill="black"/>
<path fill-rule="evenodd" clip-rule="evenodd" d="M201 6H199V2H206V4H201V6ZM208 4V2H215V6H213V4H208ZM208 14H213V12H215V16H208V14ZM199 12H201V14H206V16H199V12ZM199 8H203V6L206 9L203 12V10H199V8ZM208 9L211 6V8H215V10H211V12L208 9Z" fill="black"/>
<path d="M232 2H218V3H232V2Z" fill="black"/>
<path d="M226 6H218V7H226V6Z" fill="black"/>
<path d="M232 10H218V11H232V10Z" fill="black"/>
<path d="M226 15H218V16H226V15Z" fill="black"/>
<path d="M250 2H236V3H250V2Z" fill="black"/>
<path d="M247 6H239V7H247V6Z" fill="black"/>
<path d="M250 10H236V11H250V10Z" fill="black"/>
<path d="M247 15H239V16H247V15Z" fill="black"/>
<path d="M16 20H2V21H16V20Z" fill="black"/>
<path d="M16 24H8V25H16V24Z" fill="black"/>
<path d="M16 28H2V29H16V28Z" fill="black"/>
<path d="M16 33H8V34H16V33Z" fill="black"/>
<path d="M31.75 28H29.25C28.9186 27.9997 28.6009 27.8846 28.3665 27.6801C28.1322 27.4756 28.0004 27.1983 28 26.9091V23.0909C28.0004 22.8017 28.1322 22.5244 28.3665 22.3199C28.6009 22.1154 28.9186 22.0003 29.25 22H31.75C32.0814 22.0003 32.3991 22.1154 32.6335 22.3199C32.8678 22.5244 32.9996 22.8017 33 23.0909V26.9091C32.9996 27.1983 32.8678 27.4756 32.6335 27.6801C32.3991 27.8846 32.0814 27.9997 31.75 28ZM29.25 23.0909V26.9091H31.7507L31.75 23.0909H29.25Z" fill="black"/>
<path d="M24.75 32H22.25C21.9186 31.9997 21.6009 31.8887 21.3665 31.6913C21.1322 31.494 21.0004 31.2264 21 30.9474V23.0526C21.0004 22.7736 21.1322 22.506 21.3665 22.3087C21.6009 22.1113 21.9186 22.0003 22.25 22H24.75C25.0814 22.0003 25.3991 22.1113 25.6335 22.3087C25.8678 22.506 25.9996 22.7736 26 23.0526V30.9474C25.9996 31.2264 25.8678 31.494 25.6335 31.6913C25.3991 31.8887 25.0814 31.9997 24.75 32ZM22.25 23.0526V30.9474H24.7507L24.75 23.0526H22.25Z" fill="black"/>
<path d="M35 20H19V21H35V20Z" fill="black"/>
<path d="M53 26.5H50.7143V25C50.7139 24.7349 50.5934 24.4807 50.3791 24.2933C50.1649 24.1058 49.8744 24.0003 49.5714 24H47.2857C46.9827 24.0003 46.6923 24.1058 46.478 24.2933C46.2638 24.4807 46.1432 24.7349 46.1429 25V26.5H43.8571V23C43.8568 22.7349 43.7362 22.4807 43.522 22.2933C43.3077 22.1058 43.0173 22.0003 42.7143 22H40.4286C40.1256 22.0003 39.8351 22.1058 39.6209 22.2933C39.4066 22.4807 39.2861 22.7349 39.2857 23V26.5H37V27.5H39.2857V31C39.2861 31.2651 39.4066 31.5193 39.6209 31.7067C39.8351 31.8942 40.1256 31.9997 40.4286 32H42.7143C43.0173 31.9997 43.3077 31.8942 43.522 31.7067C43.7362 31.5193 43.8568 31.2651 43.8571 31V27.5H46.1429V29C46.1432 29.2651 46.2638 29.5193 46.478 29.7067C46.6923 29.8942 46.9827 29.9997 47.2857 30H49.5714C49.8744 29.9997 50.1649 29.8942 50.3791 29.7067C50.5934 29.5193 50.7139 29.2651 50.7143 29V27.5H53V26.5ZM40.4286 31V23H42.7143L42.715 31H40.4286ZM47.2857 29V25H49.5714L49.5721 29H47.2857Z" fill="black"/>
<path d="M71.875 33H56.125V34.125H71.875V33Z" fill="black"/>
<path d="M68.375 32H66.125C65.8267 31.9996 65.5408 31.8654 65.3299 31.6268C65.119 31.3882 65.0003 31.0647 65 30.7273V26.2727C65.0003 25.9353 65.119 25.6118 65.3299 25.3732C65.5408 25.1346 65.8267 25.0004 66.125 25H68.375C68.6733 25.0004 68.9592 25.1346 69.1701 25.3732C69.381 25.6118 69.4997 25.9353 69.5 26.2727V30.7273C69.4997 31.0647 69.381 31.3882 69.1701 31.6268C68.9592 31.8654 68.6733 31.9996 68.375 32ZM66.125 26.2727V30.7273H68.3757L68.375 26.2727H66.125Z" fill="black"/>
<path d="M61.75 32H59.25C58.9186 31.9997 58.6009 31.8887 58.3665 31.6913C58.1322 31.494 58.0004 31.2264 58 30.9474V23.0526C58.0004 22.7736 58.1322 22.506 58.3665 22.3087C58.6009 22.1113 58.9186 22.0003 59.25 22H61.75C62.0814 22.0003 62.3991 22.1113 62.6335 22.3087C62.8678 22.506 62.9996 22.7736 63 23.0526V30.9474C62.9996 31.2264 62.8678 31.494 62.6335 31.6913C62.3991 31.8887 62.0814 31.9997 61.75 32ZM59.25 23.0526V30.9474H61.7507L61.75 23.0526H59.25Z" fill="black"/>
<path d="M78.625 29H74.875V29.9375H78.625V29Z" fill="black"/>
<path opacity="0.6" d="M84.6202 25H75V25.9375H84.6094C85.0445 25.9375 85.4618 26.1104 85.7695 26.418C86.0771 26.7257 86.25 27.143 86.25 27.5781C86.25 28.0132 86.0771 28.4305 85.7695 28.7382C85.4618 29.0459 85.0445 29.2188 84.6094 29.2188H81.9507L83.1629 28.0066L82.5 27.3438L80.1562 29.6875L82.5 32.0313L83.1629 31.3684L81.9507 30.1563H84.6248C85.3086 30.1556 85.9641 29.8834 86.4472 29.3995C86.9302 28.9155 87.2012 28.2595 87.2006 27.5758C87.2 26.892 86.9278 26.2365 86.4439 25.7535C85.9599 25.2704 85.304 24.9994 84.6202 25Z" fill="black"/>
<path d="M86.25 21H75V21.9375H86.25V21Z" fill="black"/>
<path d="M100.167 34H97.8333C97.5239 34 97.2272 33.8771 97.0084 33.6583C96.7896 33.4395 96.6667 33.1428 96.6667 32.8333V28.4058L92.3442 24.0833C92.1251 23.8655 92.0013 23.5698 92 23.2608V21.1667C92 20.8572 92.1229 20.5605 92.3417 20.3417C92.5605 20.1229 92.8572 20 93.1667 20H104.833C105.143 20 105.439 20.1229 105.658 20.3417C105.877 20.5605 106 20.8572 106 21.1667V23.2608C105.999 23.5698 105.875 23.8655 105.656 24.0833L101.333 28.4058V32.8333C101.333 33.1428 101.21 33.4395 100.992 33.6583C100.773 33.8771 100.476 34 100.167 34ZM93.1667 21.1667V23.2608L97.8333 27.9275V32.8333H100.167V27.9275L104.833 23.2608V21.1667H93.1667Z" fill="black"/>
<path fill-rule="evenodd" clip-rule="evenodd" d="M122 20H112V21.8L117.5 27L112 32.2V34H122V32H115.1L120 27L115.1 22H122V20Z" fill="black"/>
<path fill-rule="evenodd" clip-rule="evenodd" d="M131 25L135 29L139 25H131Z" fill="black"/>
<path fill-rule="evenodd" clip-rule="evenodd" d="M151 31L155 27L151 23V31Z" fill="black"/>
<g clip-path="url(#clip0_1_526)">
<path d="M177.625 22.38C177.346 22.1003 177.015 21.8784 176.65 21.727C176.286 21.5756 175.895 21.4976 175.5 21.4976C175.105 21.4976 174.714 21.5756 174.35 21.727C173.985 21.8784 173.654 22.1003 173.375 22.38L174.085 23.09C174.271 22.9038 174.492 22.7562 174.735 22.6554C174.979 22.5547 175.239 22.5028 175.503 22.5028C175.766 22.5028 176.026 22.5547 176.27 22.6554C176.513 22.7562 176.734 22.9038 176.92 23.09C177.106 23.2761 177.254 23.4971 177.355 23.7403C177.455 23.9836 177.507 24.2442 177.507 24.5075C177.507 24.7707 177.455 25.0314 177.355 25.2746C177.254 25.5178 177.106 25.7388 176.92 25.925L172.92 29.925C172.545 30.3009 172.035 30.5124 171.504 30.5129C170.973 30.5133 170.463 30.3028 170.088 29.9275C169.712 29.5522 169.5 29.0429 169.5 28.5118C169.499 27.9806 169.71 27.4709 170.085 27.095L170.79 26.385L170.085 25.675L169.375 26.385C169.095 26.6637 168.873 26.9949 168.722 27.3595C168.571 27.7242 168.493 28.1151 168.493 28.51C168.493 28.9048 168.571 29.2958 168.722 29.6604C168.873 30.0251 169.095 30.3563 169.375 30.635C169.941 31.1935 170.705 31.5046 171.5 31.5C171.896 31.5016 172.289 31.4247 172.656 31.2736C173.022 31.1226 173.355 30.9004 173.635 30.62L177.635 26.62C178.195 26.0562 178.509 25.2929 178.507 24.4979C178.505 23.7029 178.188 22.9412 177.625 22.38Z" fill="black"/>
<path d="M165.095 31.41C164.908 31.2242 164.76 31.0033 164.659 30.76C164.558 30.5168 164.506 30.2559 164.506 29.9925C164.506 29.7291 164.558 29.4682 164.659 29.225C164.76 28.9817 164.908 28.7608 165.095 28.575L169.095 24.575C169.281 24.3883 169.502 24.2401 169.745 24.1391C169.988 24.038 170.249 23.9859 170.512 23.9859C170.776 23.9859 171.037 24.038 171.28 24.1391C171.523 24.2401 171.744 24.3883 171.93 24.575C172.116 24.7623 172.262 24.9849 172.359 25.2297C172.457 25.4745 172.505 25.7364 172.5 26C172.502 26.2644 172.451 26.5265 172.35 26.7711C172.25 27.0157 172.102 27.2379 171.915 27.425L170.855 28.5L171.565 29.21L172.625 28.15C173.189 27.5858 173.506 26.8205 173.506 26.0225C173.506 25.2245 173.189 24.4593 172.625 23.895C172.061 23.3308 171.295 23.0138 170.497 23.0138C169.7 23.0138 168.934 23.3308 168.37 23.895L164.37 27.895C164.09 28.1738 163.867 28.5053 163.715 28.8704C163.563 29.2355 163.485 29.6271 163.485 30.0225C163.485 30.4179 163.563 30.8095 163.715 31.1746C163.867 31.5397 164.09 31.8712 164.37 32.15C164.939 32.7042 165.705 33.0099 166.5 33C167.302 33.0008 168.071 32.6844 168.64 32.12L167.93 31.41C167.744 31.5967 167.523 31.7449 167.28 31.846C167.037 31.947 166.776 31.9991 166.512 31.9991C166.249 31.9991 165.988 31.947 165.745 31.846C165.502 31.7449 165.281 31.5967 165.095 31.41Z" fill="black"/>
</g>
<path d="M196 34H183.929C183.682 34 183.446 33.9022 183.272 33.728C183.098 33.5539 183 33.3177 183 33.0714V21H183.929V33.0714H196V34Z" fill="black"/>
<path d="M187.875 27.5H187.062V32.375H187.875V27.5Z" fill="black"/>
<path d="M186.25 29.9375H185.438V32.375H186.25V29.9375Z" fill="black"/>
<path d="M195.188 23.4375H194.375V32.375H195.188V23.4375Z" fill="black"/>
<path d="M193.562 26.6875H192.75V32.375H193.562V26.6875Z" fill="black"/>
<path d="M188.688 32.375H189.5V25.875H188.688V32.375Z" fill="black"/>
<path d="M191.125 32.375H191.938V28.3125H191.125V32.375Z" fill="black"/>
<path d="M212.923 20H201.077C200.791 20 200.517 20.1135 200.315 20.3154C200.113 20.5174 200 20.7913 200 21.0769V32.9231C200 33.2087 200.113 33.4826 200.315 33.6846C200.517 33.8865 200.791 34 201.077 34H212.923C213.209 34 213.483 33.8865 213.685 33.6846C213.887 33.4826 214 33.2087 214 32.9231V21.0769C214 20.7913 213.887 20.5174 213.685 20.3154C213.483 20.1135 213.209 20 212.923 20ZM212.923 21.0769V23.2308H201.077V21.0769H212.923ZM207.538 24.3077H212.923V28.0769H207.538V24.3077ZM206.462 28.0769H201.077V24.3077H206.462V28.0769ZM201.077 29.1538H206.462V32.9231H201.077V29.1538ZM207.538 32.9231V29.1538H212.923V32.9231H207.538Z" fill="black"/>
<path fill-rule="evenodd" clip-rule="evenodd" d="M220 25.5C219.17 25.5 218.5 26.17 218.5 27C218.5 27.83 219.17 28.5 220 28.5C220.83 28.5 221.5 27.83 221.5 27C221.5 26.17 220.83 25.5 220 25.5ZM230 25.5C229.17 25.5 228.5 26.17 228.5 27C228.5 27.83 229.17 28.5 230 28.5C230.83 28.5 231.5 27.83 231.5 27C231.5 26.17 230.83 25.5 230 25.5ZM225 25.5C224.17 25.5 223.5 26.17 223.5 27C223.5 27.83 224.17 28.5 225 28.5C225.83 28.5 226.5 27.83 226.5 27C226.5 26.17 225.83 25.5 225 25.5Z" fill="black"/>
<path d="M243.875 26.125V20H242.125V26.125H236V27.875H242.125V34H243.875V27.875H250V26.125H243.875Z" fill="black"/>
<path fill-rule="evenodd" clip-rule="evenodd" d="M2 38V52H16V38H2ZM8 50H4V46H8V50ZM8 44H4V40H8V44ZM14 50H10V46H14V50ZM14 44H10V40H14V44Z" fill="black"/>
<path opacity="0.54" fill-rule="evenodd" clip-rule="evenodd" d="M38 52H39V51H38V52ZM39 42H38V43H39V42ZM42 52H43V51H42V52ZM48 38H47V39H48V38ZM39 38H38V39H39V38ZM43 38H42V39H43V38ZM38 48H39V47H38V48ZM47 52H48V51H47V52ZM51 38V39H52V38H51ZM51 43H52V42H51V43ZM51 52H52V51H51V52ZM51 48H52V47H51V48Z" fill="black"/>
<line x1="49.5" y1="38" x2="49.5" y2="39" stroke="#707070"/>
<line x1="51.5" y1="40" x2="51.5" y2="41" stroke="#707070"/>
<line x1="51.5" y1="49" x2="51.5" y2="50" stroke="#707070"/>
<line x1="49.5" y1="51" x2="49.5" y2="52" stroke="#707070"/>
<line x1="40.5" y1="51" x2="40.5" y2="52" stroke="#707070"/>
<line x1="38.5" y1="49" x2="38.5" y2="50" stroke="#707070"/>
<line x1="38.5" y1="40" x2="38.5" y2="41" stroke="#707070"/>
<line x1="40.5" y1="38" x2="40.5" y2="39" stroke="#707070"/>
<line x1="45.5" y1="38" x2="45.5" y2="39" stroke="#707070"/>
<line x1="45.5" y1="40" x2="45.5" y2="41" stroke="#707070"/>
<line x1="44.5" y1="40" x2="44.5" y2="41" stroke="#707070"/>
<line x1="45.5" y1="42" x2="45.5" y2="43" stroke="#707070"/>
<line x1="44.5" y1="42" x2="44.5" y2="43" stroke="#707070"/>
<line x1="45.5" y1="47" x2="45.5" y2="48" stroke="#707070"/>
<line x1="44.5" y1="47" x2="44.5" y2="48" stroke="#707070"/>
<line x1="45.5" y1="49" x2="45.5" y2="50" stroke="#707070"/>
<line x1="44.5" y1="49" x2="44.5" y2="50" stroke="#707070"/>
<line x1="45.5" y1="51" x2="45.5" y2="52" stroke="#707070"/>
<line x1="44.5" y1="51" x2="44.5" y2="52" stroke="#707070"/>
<line x1="44.5" y1="38" x2="44.5" y2="39" stroke="#707070"/>
<line x1="44.5" y1="45" x2="44.5" y2="46" stroke="#707070"/>
<line x1="44.5" y1="44" x2="44.5" y2="45" stroke="#707070"/>
<line x1="42.5" y1="44" x2="42.5" y2="45" stroke="#707070"/>
<line x1="42.5" y1="45" x2="42.5" y2="46" stroke="#707070"/>
<line x1="40.5" y1="44" x2="40.5" y2="45" stroke="#707070"/>
<line x1="40.5" y1="45" x2="40.5" y2="46" stroke="#707070"/>
<line x1="38.5" y1="44" x2="38.5" y2="45" stroke="#707070"/>
<line x1="38.5" y1="45" x2="38.5" y2="46" stroke="#707070"/>
<line x1="45.5" y1="44" x2="45.5" y2="45" stroke="#707070"/>
<line x1="45.5" y1="45" x2="45.5" y2="46" stroke="#707070"/>
<line x1="47.5" y1="44" x2="47.5" y2="45" stroke="#707070"/>
<line x1="47.5" y1="45" x2="47.5" y2="46" stroke="#707070"/>
<line x1="49.5" y1="45" x2="49.5" y2="46" stroke="#707070"/>
<line x1="49.5" y1="44" x2="49.5" y2="45" stroke="#707070"/>
<line x1="51.5" y1="44" x2="51.5" y2="45" stroke="#707070"/>
<line x1="51.5" y1="45" x2="51.5" y2="46" stroke="#707070"/>
<path opacity="0.54" fill-rule="evenodd" clip-rule="evenodd" d="M56 52H57V51H56V52ZM57 42H56V43H57V42ZM60 52H61V51H60V52ZM66 38H65V39H66V38ZM57 38H56V39H57V38ZM61 38H60V39H61V38ZM56 48H57V47H56V48ZM65 52H66V51H65V52ZM69 38V39H70V38H69ZM69 43H70V42H69V43ZM69 52H70V51H69V52ZM69 48H70V47H69V48Z" fill="black"/>
<line x1="67.5" y1="38" x2="67.5" y2="39" stroke="#707070"/>
<line x1="69.5" y1="40" x2="69.5" y2="41" stroke="#707070"/>
<line x1="69.5" y1="49" x2="69.5" y2="50" stroke="#707070"/>
<line x1="67.5" y1="51" x2="67.5" y2="52" stroke="#707070"/>
<line x1="58.5" y1="51" x2="58.5" y2="52" stroke="#707070"/>
<line x1="56.5" y1="49" x2="56.5" y2="50" stroke="#707070"/>
<line x1="56.5" y1="40" x2="56.5" y2="41" stroke="#707070"/>
<line x1="58.5" y1="38" x2="58.5" y2="39" stroke="#707070"/>
<line x1="63.5" y1="38" x2="63.5" y2="39" stroke="#707070"/>
<line x1="63.5" y1="40" x2="63.5" y2="41" stroke="#707070"/>
<line x1="62.5" y1="40" x2="62.5" y2="41" stroke="#707070"/>
<line x1="63.5" y1="42" x2="63.5" y2="43" stroke="#707070"/>
<line x1="62.5" y1="42" x2="62.5" y2="43" stroke="#707070"/>
<line x1="63.5" y1="47" x2="63.5" y2="48" stroke="#707070"/>
<line x1="62.5" y1="47" x2="62.5" y2="48" stroke="#707070"/>
<line x1="63.5" y1="49" x2="63.5" y2="50" stroke="#707070"/>
<line x1="62.5" y1="49" x2="62.5" y2="50" stroke="#707070"/>
<line x1="63.5" y1="51" x2="63.5" y2="52" stroke="#707070"/>
<line x1="62.5" y1="51" x2="62.5" y2="52" stroke="#707070"/>
<line x1="62.5" y1="38" x2="62.5" y2="39" stroke="#707070"/>
<line x1="62.5" y1="45" x2="62.5" y2="46" stroke="#707070"/>
<line x1="62.5" y1="44" x2="62.5" y2="45" stroke="#707070"/>
<line x1="60.5" y1="44" x2="60.5" y2="45" stroke="#707070"/>
<line x1="60.5" y1="45" x2="60.5" y2="46" stroke="#707070"/>
<line x1="58.5" y1="44" x2="58.5" y2="45" stroke="#707070"/>
<line x1="58.5" y1="45" x2="58.5" y2="46" stroke="#707070"/>
<line x1="56.5" y1="44" x2="56.5" y2="45" stroke="#707070"/>
<line x1="56.5" y1="45" x2="56.5" y2="46" stroke="#707070"/>
<line x1="63.5" y1="44" x2="63.5" y2="45" stroke="#707070"/>
<line x1="63.5" y1="45" x2="63.5" y2="46" stroke="#707070"/>
<line x1="65.5" y1="44" x2="65.5" y2="45" stroke="#707070"/>
<line x1="65.5" y1="45" x2="65.5" y2="46" stroke="#707070"/>
<line x1="67.5" y1="45" x2="67.5" y2="46" stroke="#707070"/>
<line x1="67.5" y1="44" x2="67.5" y2="45" stroke="#707070"/>
<line x1="69.5" y1="44" x2="69.5" y2="45" stroke="#707070"/>
<line x1="69.5" y1="45" x2="69.5" y2="46" stroke="#707070"/>
<path opacity="0.54" fill-rule="evenodd" clip-rule="evenodd" d="M74 52H75V51H74V52ZM75 42H74V43H75V42ZM78 52H79V51H78V52ZM84 38H83V39H84V38ZM75 38H74V39H75V38ZM79 38H78V39H79V38ZM74 48H75V47H74V48ZM83 52H84V51H83V52ZM87 38V39H88V38H87ZM87 43H88V42H87V43ZM87 52H88V51H87V52ZM87 48H88V47H87V48Z" fill="black"/>
<line x1="85.5" y1="38" x2="85.5" y2="39" stroke="#707070"/>
<line x1="87.5" y1="40" x2="87.5" y2="41" stroke="#707070"/>
<line x1="87.5" y1="49" x2="87.5" y2="50" stroke="#707070"/>
<line x1="85.5" y1="51" x2="85.5" y2="52" stroke="#707070"/>
<line x1="76.5" y1="51" x2="76.5" y2="52" stroke="#707070"/>
<line x1="74.5" y1="49" x2="74.5" y2="50" stroke="#707070"/>
<line x1="74.5" y1="40" x2="74.5" y2="41" stroke="#707070"/>
<line x1="76.5" y1="38" x2="76.5" y2="39" stroke="#707070"/>
<line x1="81.5" y1="38" x2="81.5" y2="39" stroke="#707070"/>
<line x1="81.5" y1="40" x2="81.5" y2="41" stroke="#707070"/>
<line x1="80.5" y1="40" x2="80.5" y2="41" stroke="#707070"/>
<line x1="81.5" y1="42" x2="81.5" y2="43" stroke="#707070"/>
<line x1="80.5" y1="42" x2="80.5" y2="43" stroke="#707070"/>
<line x1="81.5" y1="47" x2="81.5" y2="48" stroke="#707070"/>
<line x1="80.5" y1="47" x2="80.5" y2="48" stroke="#707070"/>
<line x1="81.5" y1="49" x2="81.5" y2="50" stroke="#707070"/>
<line x1="80.5" y1="49" x2="80.5" y2="50" stroke="#707070"/>
<line x1="81.5" y1="51" x2="81.5" y2="52" stroke="#707070"/>
<line x1="80.5" y1="51" x2="80.5" y2="52" stroke="#707070"/>
<line x1="80.5" y1="38" x2="80.5" y2="39" stroke="#707070"/>
<line x1="80.5" y1="45" x2="80.5" y2="46" stroke="#707070"/>
<line x1="80.5" y1="44" x2="80.5" y2="45" stroke="#707070"/>
<line x1="78.5" y1="44" x2="78.5" y2="45" stroke="#707070"/>
<line x1="78.5" y1="45" x2="78.5" y2="46" stroke="#707070"/>
<line x1="76.5" y1="44" x2="76.5" y2="45" stroke="#707070"/>
<line x1="76.5" y1="45" x2="76.5" y2="46" stroke="#707070"/>
<line x1="74.5" y1="44" x2="74.5" y2="45" stroke="#707070"/>
<line x1="74.5" y1="45" x2="74.5" y2="46" stroke="#707070"/>
<line x1="81.5" y1="44" x2="81.5" y2="45" stroke="#707070"/>
<line x1="81.5" y1="45" x2="81.5" y2="46" stroke="#707070"/>
<line x1="83.5" y1="44" x2="83.5" y2="45" stroke="#707070"/>
<line x1="83.5" y1="45" x2="83.5" y2="46" stroke="#707070"/>
<line x1="85.5" y1="45" x2="85.5" y2="46" stroke="#707070"/>
<line x1="85.5" y1="44" x2="85.5" y2="45" stroke="#707070"/>
<line x1="87.5" y1="44" x2="87.5" y2="45" stroke="#707070"/>
<line x1="87.5" y1="45" x2="87.5" y2="46" stroke="#707070"/>
<path fill-rule="evenodd" clip-rule="evenodd" d="M38 46H52V44H38V46Z" fill="black"/>
<path opacity="0.54" fill-rule="evenodd" clip-rule="evenodd" d="M20 52H21V51H20V52ZM21 42H20V43H21V42ZM24 52H25V51H24V52ZM30 38H29V39H30V38ZM21 38H20V39H21V38ZM25 38H24V39H25V38ZM20 48H21V47H20V48ZM29 52H30V51H29V52ZM33 38V39H34V38H33ZM33 43H34V42H33V43ZM33 52H34V51H33V52ZM33 48H34V47H33V48Z" fill="black"/>
<path fill-rule="evenodd" clip-rule="evenodd" d="M28 38H26V44H20V46H26V52H28V46H34V44H28V38Z" fill="black"/>
<path fill-rule="evenodd" clip-rule="evenodd" d="M62 52H64V38H62V52Z" fill="black"/>
<path fill-rule="evenodd" clip-rule="evenodd" d="M74 38H88V52H74V38ZM86 50V40H76V50H86Z" fill="black"/>
<g clip-path="url(#clip1_1_526)">
<path d="M90.7812 37.7812V53.2188H91.9688V37.7812H90.7812Z" fill="black"/>
<path d="M93.1562 52.0312V53.2188H94.3438V52.0312H93.1562Z" fill="black"/>
<path d="M95.5312 52.0312V53.2188H96.7188V52.0312H95.5312Z" fill="black"/>
<path d="M97.9062 52.0312V53.2188H99.0938V52.0312H97.9062Z" fill="black"/>
<path d="M100.281 52.0312V53.2188H101.469V52.0312H100.281Z" fill="black"/>
<path d="M102.656 52.0312V53.2188H103.844V52.0312H102.656Z" fill="black"/>
<path d="M105.031 52.0312V53.2188H106.219V52.0312H105.031Z" fill="black"/>
<path d="M105.031 49.6562V50.8438H106.219V49.6562H105.031Z" fill="black"/>
<path d="M105.031 47.2812V48.4688H106.219V47.2812H105.031Z" fill="black"/>
<path d="M105.031 44.9062V46.0938H106.219V44.9062H105.031Z" fill="black"/>
<path d="M105.031 40.1562V41.3438H106.219V40.1562H105.031Z" fill="black"/>
<path d="M105.031 42.5312V43.7188H106.219V42.5312H105.031Z" fill="black"/>
<path d="M93.1562 37.7812V38.9688H94.3438V37.7812H93.1562Z" fill="black"/>
<path d="M95.5312 37.7812V38.9688H96.7188V37.7812H95.5312Z" fill="black"/>
<path d="M97.9062 37.7812V38.9688H99.0938V37.7812H97.9062Z" fill="black"/>
<path d="M100.281 37.7812V38.9688H101.469V37.7812H100.281Z" fill="black"/>
<path d="M102.656 37.7812V38.9688H103.844V37.7812H102.656Z" fill="black"/>
<path d="M105.031 37.7812V38.9688H106.219V37.7812H105.031Z" fill="black"/>
<path d="M99.6875 41.9375H93.75V43.125H99.6875V41.9375Z" fill="black"/>
<path d="M97.3125 44.9062H93.75V46.0938H97.3125V44.9062Z" fill="black"/>
</g>
<path d="M124.312 37.6875H109.688V38.8125H124.312V37.6875Z" fill="black"/>
<path d="M110.812 39.9375H109.688V41.0625H110.812V39.9375Z" fill="black"/>
<path d="M110.812 42.1875H109.688V43.3125H110.812V42.1875Z" fill="black"/>
<path d="M110.812 44.4375H109.688V45.5625H110.812V44.4375Z" fill="black"/>
<path d="M110.812 46.6875H109.688V47.8125H110.812V46.6875Z" fill="black"/>
<path d="M110.812 48.9375H109.688V50.0625H110.812V48.9375Z" fill="black"/>
<path d="M110.812 51.1875H109.688V52.3125H110.812V51.1875Z" fill="black"/>
<path d="M113.062 51.1875H111.938V52.3125H113.062V51.1875Z" fill="black"/>
<path d="M115.312 51.1875H114.188V52.3125H115.312V51.1875Z" fill="black"/>
<path d="M117.562 51.1875H116.438V52.3125H117.562V51.1875Z" fill="black"/>
<path d="M122.062 51.1875H120.938V52.3125H122.062V51.1875Z" fill="black"/>
<path d="M119.812 51.1875H118.688V52.3125H119.812V51.1875Z" fill="black"/>
<path d="M124.312 39.9375H123.188V41.0625H124.312V39.9375Z" fill="black"/>
<path d="M124.312 42.1875H123.188V43.3125H124.312V42.1875Z" fill="black"/>
<path d="M124.312 44.4375H123.188V45.5625H124.312V44.4375Z" fill="black"/>
<path d="M124.312 46.6875H123.188V47.8125H124.312V46.6875Z" fill="black"/>
<path d="M124.312 48.9375H123.188V50.0625H124.312V48.9375Z" fill="black"/>
<path d="M124.312 51.1875H123.188V52.3125H124.312V51.1875Z" fill="black"/>
<path d="M118.125 41.625H112.5V42.75H118.125V41.625Z" fill="black"/>
<path d="M115.875 44.4375H112.5V45.5625H115.875V44.4375Z" fill="black"/>
<g clip-path="url(#clip2_1_526)">
<path d="M142.312 52.3125V37.6875H141.188V52.3125H142.312Z" fill="black"/>
<path d="M140.062 38.8125V37.6875H138.938V38.8125H140.062Z" fill="black"/>
<path d="M137.812 38.8125V37.6875H136.688V38.8125H137.812Z" fill="black"/>
<path d="M135.562 38.8125V37.6875H134.438V38.8125H135.562Z" fill="black"/>
<path d="M133.312 38.8125V37.6875H132.188V38.8125H133.312Z" fill="black"/>
<path d="M131.062 38.8125V37.6875H129.938V38.8125H131.062Z" fill="black"/>
<path d="M128.812 38.8125V37.6875H127.688V38.8125H128.812Z" fill="black"/>
<path d="M128.812 41.0625V39.9375H127.688V41.0625H128.812Z" fill="black"/>
<path d="M128.812 43.3125V42.1875H127.688V43.3125H128.812Z" fill="black"/>
<path d="M128.812 45.5625V44.4375H127.688V45.5625H128.812Z" fill="black"/>
<path d="M128.812 50.0625V48.9375H127.688V50.0625H128.812Z" fill="black"/>
<path d="M128.812 47.8125V46.6875H127.688V47.8125H128.812Z" fill="black"/>
<path d="M140.062 52.3125V51.1875H138.938V52.3125H140.062Z" fill="black"/>
<path d="M137.812 52.3125V51.1875H136.688V52.3125H137.812Z" fill="black"/>
<path d="M135.562 52.3125V51.1875H134.438V52.3125H135.562Z" fill="black"/>
<path d="M133.312 52.3125V51.1875H132.188V52.3125H133.312Z" fill="black"/>
<path d="M131.062 52.3125V51.1875H129.938V52.3125H131.062Z" fill="black"/>
<path d="M128.812 52.3125V51.1875H127.688V52.3125H128.812Z" fill="black"/>
<path d="M136.125 41.625H130.5V42.75H136.125V41.625Z" fill="black"/>
<path d="M133.875 44.4375H130.5V45.5625H133.875V44.4375Z" fill="black"/>
</g>
<g clip-path="url(#clip3_1_526)">
<path d="M145.688 52.3125H160.312V51.1875H145.688V52.3125Z" fill="black"/>
<path d="M159.188 50.0625H160.312V48.9375H159.188V50.0625Z" fill="black"/>
<path d="M159.188 47.8125H160.312V46.6875H159.188V47.8125Z" fill="black"/>
<path d="M159.188 45.5625H160.312V44.4375H159.188V45.5625Z" fill="black"/>
<path d="M159.188 43.3125H160.312V42.1875H159.188V43.3125Z" fill="black"/>
<path d="M159.188 41.0625H160.312V39.9375H159.188V41.0625Z" fill="black"/>
<path d="M159.188 38.8125H160.312V37.6875H159.188V38.8125Z" fill="black"/>
<path d="M156.938 38.8125H158.062V37.6875H156.938V38.8125Z" fill="black"/>
<path d="M154.688 38.8125H155.812V37.6875H154.688V38.8125Z" fill="black"/>
<path d="M152.438 38.8125H153.562V37.6875H152.438V38.8125Z" fill="black"/>
<path d="M147.938 38.8125H149.062V37.6875H147.938V38.8125Z" fill="black"/>
<path d="M150.188 38.8125H151.312V37.6875H150.188V38.8125Z" fill="black"/>
<path d="M145.688 50.0625H146.812V48.9375H145.688V50.0625Z" fill="black"/>
<path d="M145.688 47.8125H146.812V46.6875H145.688V47.8125Z" fill="black"/>
<path d="M145.688 45.5625H146.812V44.4375H145.688V45.5625Z" fill="black"/>
<path d="M145.688 43.3125H146.812V42.1875H145.688V43.3125Z" fill="black"/>
<path d="M145.688 41.0625H146.812V39.9375H145.688V41.0625Z" fill="black"/>
<path d="M145.688 38.8125H146.812V37.6875H145.688V38.8125Z" fill="black"/>
<path d="M154.125 41.625H148.5V42.75H154.125V41.625Z" fill="black"/>
<path d="M151.875 44.4375H148.5V45.5625H151.875V44.4375Z" fill="black"/>
</g>
<g clip-path="url(#clip4_1_526)">
<path d="M164.812 37.6875H163.688V38.8125H164.812V37.6875Z" fill="black"/>
<path d="M167.062 37.6875H165.938V38.8125H167.062V37.6875Z" fill="black"/>
<path d="M169.312 37.6875H168.188V38.8125H169.312V37.6875Z" fill="black"/>
<path d="M171.562 37.6875H170.438V38.8125H171.562V37.6875Z" fill="black"/>
<path d="M164.812 39.9375H163.688V41.0625H164.812V39.9375Z" fill="black"/>
<path d="M164.812 42.1875H163.688V43.3125H164.812V42.1875Z" fill="black"/>
<path d="M164.812 44.4375H163.688V45.5625H164.812V44.4375Z" fill="black"/>
<path d="M164.812 46.6875H163.688V47.8125H164.812V46.6875Z" fill="black"/>
<path d="M164.812 48.9375H163.688V50.0625H164.812V48.9375Z" fill="black"/>
<path d="M164.812 51.1875H163.688V52.3125H164.812V51.1875Z" fill="black"/>
<path d="M178.312 37.6875H177.188V38.8125H178.312V37.6875Z" fill="black"/>
<path d="M176.062 37.6875H174.938V38.8125H176.062V37.6875Z" fill="black"/>
<path d="M173.812 37.6875H172.688V38.8125H173.812V37.6875Z" fill="black"/>
<path d="M167.062 51.1875H165.938V52.3125H167.062V51.1875Z" fill="black"/>
<path d="M169.312 51.1875H168.188V52.3125H169.312V51.1875Z" fill="black"/>
<path d="M171.562 51.1875H170.438V52.3125H171.562V51.1875Z" fill="black"/>
<path d="M176.062 51.1875H174.938V52.3125H176.062V51.1875Z" fill="black"/>
<path d="M173.812 51.1875H172.688V52.3125H173.812V51.1875Z" fill="black"/>
<path d="M178.312 39.9375H177.188V41.0625H178.312V39.9375Z" fill="black"/>
<path d="M178.312 42.1875H177.188V43.3125H178.312V42.1875Z" fill="black"/>
<path d="M178.312 44.4375H177.188V45.5625H178.312V44.4375Z" fill="black"/>
<path d="M178.312 46.6875H177.188V47.8125H178.312V46.6875Z" fill="black"/>
<path d="M178.312 48.9375H177.188V50.0625H178.312V48.9375Z" fill="black"/>
<path d="M178.312 51.1875H177.188V52.3125H178.312V51.1875Z" fill="black"/>
<path d="M172.125 41.625H166.5V42.75H172.125V41.625Z" fill="black"/>
<path d="M169.875 44.4375H166.5V45.5625H169.875V44.4375Z" fill="black"/>
</g>
<g clip-path="url(#clip5_1_526)">
<path d="M196 50H182V51H196V50Z" fill="black"/>
<path d="M193.7 41.5C194.1 41.1 194.1 40.5 193.7 40.1L191.9 38.3C191.5 37.9 190.9 37.9 190.5 38.3L183 45.8V49H186.2L193.7 41.5ZM191.2 39L193 40.8L191.5 42.3L189.7 40.5L191.2 39ZM184 48V46.2L189 41.2L190.8 43L185.8 48H184Z" fill="black"/>
</g>
<path fill-rule="evenodd" clip-rule="evenodd" d="M227 41L223 45L227 49V41Z" fill="black"/>
<path fill-rule="evenodd" clip-rule="evenodd" d="M246.53 42.53L245.47 41.47L243 43.94L240.53 41.47L239.47 42.53L241.94 45L239.47 47.47L240.53 48.53L243 46.06L245.47 48.53L246.53 47.47L244.06 45L246.53 42.53Z" fill="black"/>
<path fill-rule="evenodd" clip-rule="evenodd" d="M12.44 60.44L9 63.88L5.56 60.44L4.5 61.5L9 66L13.5 61.5L12.44 60.44Z" fill="black"/>
<path fill-rule="evenodd" clip-rule="evenodd" d="M27 60L22.5 64.5L23.56 65.56L27 62.12L30.44 65.56L31.5 64.5L27 60Z" fill="black"/>
<path fill-rule="evenodd" clip-rule="evenodd" d="M47.56 66.44L44.12 63L47.56 59.56L46.5 58.5L42 63L46.5 67.5L47.56 66.44Z" fill="black"/>
<path fill-rule="evenodd" clip-rule="evenodd" d="M66 63L61.5 58.5L60.44 59.56L63.88 63L60.44 66.44L61.5 67.5L66 63Z" fill="black"/>
<path d="M82 58L81.285 58.6965L85.075 62.5H75V63.5H85.075L81.285 67.2865L82 68L87 63L82 58Z" fill="black"/>
<path d="M98 68L98.715 67.3035L94.925 63.5L105 63.5L105 62.5L94.925 62.5L98.715 58.7135L98 58L93 63L98 68Z" fill="black"/>
<line x1="200" y1="40.5" x2="214" y2="40.5" stroke="black"/>
<line x1="200" y1="44.5" x2="206" y2="44.5" stroke="black"/>
<line x1="200" y1="49.5" x2="202" y2="49.5" stroke="black"/>
<line x1="204" y1="49.5" x2="206" y2="49.5" stroke="black"/>
<line x1="208" y1="49.5" x2="210" y2="49.5" stroke="black"/>
<line x1="204" y1="49.5" x2="206" y2="49.5" stroke="black"/>
<line x1="212" y1="49.5" x2="214" y2="49.5" stroke="black"/>
<line x1="208" y1="44.5" x2="214" y2="44.5" stroke="black"/>
<rect x="58" y="3" width="8" height="3" fill="white"/>
<path d="M69.5 4V10" stroke="white"/>
<line x1="69" y1="9.5" x2="63" y2="9.5" stroke="white"/>
<line x1="61.5" y1="16" x2="61.5" y2="9" stroke="black"/>
<line x1="31.5" y1="38" x2="31.5" y2="39" stroke="#707070"/>
<line x1="33.5" y1="40" x2="33.5" y2="41" stroke="#707070"/>
<line x1="33.5" y1="49" x2="33.5" y2="50" stroke="#707070"/>
<line x1="31.5" y1="51" x2="31.5" y2="52" stroke="#707070"/>
<line x1="22.5" y1="51" x2="22.5" y2="52" stroke="#707070"/>
<line x1="20.5" y1="49" x2="20.5" y2="50" stroke="#707070"/>
<line x1="20.5" y1="40" x2="20.5" y2="41" stroke="#707070"/>
<line x1="22.5" y1="38" x2="22.5" y2="39" stroke="#707070"/>
<path d="M200 14.5H214" stroke="white"/>
<path d="M200 13.5H214" stroke="white"/>
<path d="M200 12.5H214" stroke="white"/>
<path d="M200 3.5H214" stroke="white"/>
<path d="M200 4.5H214" stroke="white"/>
<path d="M200 5.5H214" stroke="white"/>
<defs>
<clipPath id="clip0_1_526">
<rect width="16" height="16" fill="white" transform="translate(163 19)"/>
</clipPath>
<clipPath id="clip1_1_526">
<rect width="19" height="19" fill="white" transform="translate(89 36)"/>
</clipPath>
<clipPath id="clip2_1_526">
<rect width="18" height="18" fill="white" transform="translate(126 36)"/>
</clipPath>
<clipPath id="clip3_1_526">
<rect width="18" height="18" fill="white" transform="translate(144 36)"/>
</clipPath>
<clipPath id="clip4_1_526">
<rect width="18" height="18" fill="white" transform="translate(162 36)"/>
</clipPath>
<clipPath id="clip5_1_526">
<rect width="16" height="16" fill="white" transform="translate(181 37)"/>
</clipPath>
</defs>
</svg>
